<?xml version="1.0" encoding="UTF-8"?>
<svg xmlns="http://www.w3.org/2000/svg" xmlns:xlink="http://www.w3.org/1999/xlink" width="159.72pt" height="139.15pt" viewBox="0 0 159.72 139.15" version="1.2">
<defs>
<clipPath id="clip1">
  <path d="M 148 3 L 159.097656 3 L 159.097656 18 L 148 18 Z M 148 3 "/>
</clipPath>
<clipPath id="clip2">
  <path d="M 0.347656 34 L 29 34 L 29 125 L 0.347656 125 Z M 0.347656 34 "/>
</clipPath>
<clipPath id="clip3">
  <path d="M 22 129 L 30 129 L 30 138.304688 L 22 138.304688 Z M 22 129 "/>
</clipPath>
<clipPath id="clip4">
  <path d="M 31 129 L 33 129 L 33 138.304688 L 31 138.304688 Z M 31 129 "/>
</clipPath>
<clipPath id="clip5">
  <path d="M 34 129 L 42 129 L 42 138.304688 L 34 138.304688 Z M 34 129 "/>
</clipPath>
<clipPath id="clip6">
  <path d="M 42 129 L 51 129 L 51 138.304688 L 42 138.304688 Z M 42 129 "/>
</clipPath>
<clipPath id="clip7">
  <path d="M 52 129 L 59 129 L 59 138.304688 L 52 138.304688 Z M 52 129 "/>
</clipPath>
<clipPath id="clip8">
  <path d="M 61 129 L 67 129 L 67 138.304688 L 61 138.304688 Z M 61 129 "/>
</clipPath>
<clipPath id="clip9">
  <path d="M 68 129 L 76 129 L 76 138.304688 L 68 138.304688 Z M 68 129 "/>
</clipPath>
<clipPath id="clip10">
  <path d="M 83 129 L 90 129 L 90 138.304688 L 83 138.304688 Z M 83 129 "/>
</clipPath>
<clipPath id="clip11">
  <path d="M 91 129 L 100 129 L 100 138.304688 L 91 138.304688 Z M 91 129 "/>
</clipPath>
<clipPath id="clip12">
  <path d="M 101 129 L 107 129 L 107 138.304688 L 101 138.304688 Z M 101 129 "/>
</clipPath>
<clipPath id="clip13">
  <path d="M 108 129 L 116 129 L 116 138.304688 L 108 138.304688 Z M 108 129 "/>
</clipPath>
<clipPath id="clip14">
  <path d="M 117 129 L 125 129 L 125 138.304688 L 117 138.304688 Z M 117 129 "/>
</clipPath>
<clipPath id="clip15">
  <path d="M 126 129 L 128 129 L 128 138.304688 L 126 138.304688 Z M 126 129 "/>
</clipPath>
<clipPath id="clip16">
  <path d="M 129 129 L 139 129 L 139 138.304688 L 129 138.304688 Z M 129 129 "/>
</clipPath>
<clipPath id="clip17">
  <path d="M 140 129 L 148 129 L 148 138.304688 L 140 138.304688 Z M 140 129 "/>
</clipPath>
<clipPath id="clip18">
  <path d="M 149 129 L 156 129 L 156 138.304688 L 149 138.304688 Z M 149 129 "/>
</clipPath>
</defs>
<g id="surface1">
<g clip-path="url(#clip1)" clip-rule="nonzero">
<path style="stroke:none;fill-rule:nonzero;fill:#100F0D;" d="M 152.890625 4.144531 C 152.890625 4.144531 163.054688 7.359375 148.050781 17.761719 C 162.953125 12.453125 160.90625 2.363281 152.890625 4.144531 "/>
</g>
<path style="stroke:none;fill-rule:nonzero;fill:#100F0D;" d="M 154.675781 45.359375 C 154.378906 44.652344 151.148438 36.644531 132.925781 38.488281 C 139.726562 46.351562 147.375 39.398438 154.675781 45.359375 "/>
<path style="stroke:none;fill-rule:nonzero;fill:#100F0D;" d="M 111.742188 8.449219 C 121.292969 3.570312 130.367188 -0.996094 141.957031 0.195312 C 133.464844 2.316406 126.421875 5.960938 119.605469 9.496094 C 107.917969 15.574219 96.828125 21.328125 80.515625 17.574219 C 92.890625 18.050781 102.464844 13.1875 111.742188 8.449219 "/>
<path style="stroke:none;fill-rule:nonzero;fill:#100F0D;" d="M 43.054688 51.808594 C 39.632812 51.808594 36.851562 49.027344 36.847656 45.609375 C 36.847656 42.191406 39.628906 39.410156 43.050781 39.40625 C 46.46875 39.40625 49.25 42.1875 49.25 45.605469 C 49.253906 49.027344 46.472656 51.808594 43.054688 51.808594 "/>
<g clip-path="url(#clip2)" clip-rule="nonzero">
<path style="stroke:none;fill-rule:nonzero;fill:#100F0D;" d="M 23.546875 35.015625 C 13.738281 36.917969 7.152344 44.820312 7.152344 54.679688 C 7.152344 54.679688 7.152344 56.125 7.152344 56.648438 C 6.527344 56.648438 0.375 56.648438 0.375 56.648438 L 0.378906 68.445312 C 0.378906 68.445312 6.53125 68.445312 7.152344 68.445312 C 7.15625 69.171875 7.164062 102.390625 7.164062 102.390625 C 7.164062 107.65625 5.835938 110.453125 1.902344 113.46875 C 1.644531 113.660156 0.347656 114.703125 0.347656 116.011719 C 0.347656 116.019531 0.347656 116.03125 0.347656 116.039062 C 0.363281 117.496094 1.570312 118.488281 1.582031 118.5 L 5.800781 122.75 L 7.59375 124.546875 L 9.523438 122.886719 C 16.046875 117.253906 18.957031 110.933594 18.957031 102.394531 C 18.957031 102.390625 18.949219 69.171875 18.949219 68.441406 C 19.59375 68.441406 26.621094 68.4375 26.621094 68.4375 L 26.621094 56.644531 C 26.621094 56.644531 19.589844 56.644531 18.945312 56.644531 C 18.945312 56.117188 18.945312 54.683594 18.945312 54.683594 C 18.945312 50.042969 21.507812 46.828125 25.804688 46.082031 C 25.972656 46.050781 27.433594 45.761719 28.144531 44.609375 C 28.53125 44.070312 28.65625 43.492188 28.65625 42.996094 C 28.65625 42.539062 28.445312 41.925781 28.445312 41.925781 L 26.226562 35.59375 L 25.871094 34.566406 L 23.546875 35.015625 "/>
</g>
<path style="stroke:none;fill-rule:nonzero;fill:#100F0D;" d="M 37.398438 56.640625 L 37.398438 59.378906 L 37.410156 103.667969 L 49.382812 103.664062 L 49.371094 56.640625 L 37.398438 56.640625 "/>
<path style="stroke:none;fill-rule:nonzero;fill:#100F0D;" d="M 64.660156 35.859375 L 64.675781 103.660156 L 67.410156 103.660156 L 76.648438 103.65625 L 76.632812 35.859375 L 64.660156 35.859375 "/>
<path style="stroke:none;fill-rule:nonzero;fill:#100F0D;" d="M 95.617188 43.992188 C 95.617188 43.992188 95.621094 55.945312 95.621094 56.640625 C 94.984375 56.640625 88.390625 56.640625 88.390625 56.640625 L 88.394531 68.433594 C 88.394531 68.433594 94.988281 68.433594 95.625 68.433594 C 95.625 69.164062 95.632812 103.679688 95.632812 103.679688 L 107.425781 103.679688 L 107.421875 102.421875 C 107.421875 102.421875 107.414062 69.160156 107.414062 68.429688 C 108.058594 68.429688 115.09375 68.425781 115.09375 68.425781 L 115.089844 56.632812 C 115.089844 56.632812 108.058594 56.636719 107.410156 56.636719 C 107.410156 55.941406 107.40625 43.992188 107.40625 43.992188 L 95.617188 43.992188 "/>
<path style="stroke:none;fill-rule:nonzero;fill:#100F0D;" d="M 137.085938 93.9375 L 137.066406 93.9375 C 133.605469 93.9375 130.800781 91.273438 130.800781 87.988281 C 130.800781 84.703125 133.605469 82.039062 137.066406 82.039062 L 144.113281 82.039062 C 144.140625 82.351562 145.703125 93.257812 137.085938 93.9375 Z M 155.65625 73.328125 C 155.652344 62.585938 148.234375 54.789062 138.011719 54.789062 C 133.796875 54.792969 130.671875 55.972656 127.226562 58.867188 L 126.132812 59.785156 L 125.210938 60.566406 L 125.949219 61.519531 L 126.824219 62.640625 L 130.617188 67.519531 C 130.707031 67.636719 131.539062 68.730469 132.394531 68.882812 C 133.417969 69.054688 134.488281 67.988281 134.609375 67.863281 C 135.804688 66.808594 136.703125 66.425781 138.023438 66.40625 C 142.652344 66.332031 142.960938 69.28125 143.234375 71.878906 C 143.234375 71.878906 143.308594 72.460938 143.363281 72.886719 C 142.679688 72.875 139.828125 72.824219 139.828125 72.824219 C 127.460938 72.824219 121.191406 77.710938 121.195312 87.339844 C 121.195312 92.046875 122.824219 96.261719 125.777344 99.207031 C 128.679688 102.105469 132.601562 103.632812 137.121094 103.625 C 139.757812 103.621094 142.6875 101.578125 144.625 100.226562 C 144.625 100.226562 145.097656 99.90625 145.5 99.636719 C 145.617188 100.519531 146.023438 103.617188 146.023438 103.617188 L 155.664062 103.613281 L 155.65625 73.328125 "/>
<path style="stroke:none;fill-rule:nonzero;fill:#100F0D;" d="M 22.734375 124.699219 L 155.984375 124.667969 L 155.984375 124.992188 L 22.734375 125.023438 L 22.734375 124.699219 "/>
<path style="stroke:none;fill-rule:nonzero;fill:#100F0D;" d="M 27.761719 119.492188 L 27.761719 120.597656 L 22.613281 120.597656 L 22.613281 111.632812 L 27.574219 111.632812 L 27.574219 112.738281 L 23.976562 112.738281 L 23.976562 115.339844 L 27.023438 115.339844 L 27.023438 116.441406 L 23.976562 116.441406 L 23.976562 119.492188 L 27.761719 119.492188 "/>
<path style="stroke:none;fill-rule:nonzero;fill:#100F0D;" d="M 32.703125 113.800781 L 32.703125 120.597656 L 31.335938 120.597656 L 31.335938 111.632812 L 32.703125 111.632812 L 37.792969 118.429688 L 37.792969 111.632812 L 39.160156 111.632812 L 39.160156 120.597656 L 37.792969 120.597656 L 32.703125 113.800781 "/>
<path style="stroke:none;fill-rule:nonzero;fill:#100F0D;" d="M 51.828125 111.84375 L 47.769531 120.597656 L 46.628906 120.597656 L 42.570312 111.84375 L 43.933594 111.484375 L 47.199219 118.699219 L 50.464844 111.484375 L 51.828125 111.84375 "/>
<path style="stroke:none;fill-rule:nonzero;fill:#100F0D;" d="M 56.917969 120.597656 L 55.515625 120.597656 L 55.515625 111.632812 L 56.917969 111.632812 L 56.917969 120.597656 "/>
<path style="stroke:none;fill-rule:nonzero;fill:#100F0D;" d="M 63.800781 116.085938 C 64.996094 116.085938 66.105469 115.382812 66.105469 114.414062 C 66.105469 113.441406 65.035156 112.738281 63.800781 112.738281 L 62.726562 112.738281 L 62.726562 116.085938 Z M 68.335938 119.953125 L 67.285156 120.746094 L 63.742188 117.191406 L 62.726562 117.191406 L 62.726562 120.597656 L 61.363281 120.597656 L 61.363281 111.632812 L 63.800781 111.632812 C 65.753906 111.632812 67.523438 112.828125 67.503906 114.414062 C 67.484375 115.714844 66.34375 116.652344 65.234375 116.953125 L 68.335938 119.953125 "/>
<path style="stroke:none;fill-rule:nonzero;fill:#100F0D;" d="M 75.710938 119.671875 C 77.761719 119.671875 78.570312 117.609375 78.570312 116.113281 C 78.570312 114.621094 77.761719 112.558594 75.710938 112.558594 C 73.664062 112.558594 72.855469 114.621094 72.855469 116.113281 C 72.855469 117.609375 73.664062 119.671875 75.710938 119.671875 Z M 79.972656 116.113281 C 79.972656 118.371094 78.496094 120.746094 75.710938 120.746094 C 72.925781 120.746094 71.453125 118.371094 71.453125 116.113281 C 71.453125 113.859375 72.925781 111.484375 75.710938 111.484375 C 78.496094 111.484375 79.972656 113.859375 79.972656 116.113281 "/>
<path style="stroke:none;fill-rule:nonzero;fill:#100F0D;" d="M 85.121094 113.800781 L 85.121094 120.597656 L 83.753906 120.597656 L 83.753906 111.632812 L 85.121094 111.632812 L 90.210938 118.429688 L 90.210938 111.632812 L 91.574219 111.632812 L 91.574219 120.597656 L 90.210938 120.597656 L 85.121094 113.800781 "/>
<path style="stroke:none;fill-rule:nonzero;fill:#100F0D;" d="M 97.808594 113.933594 L 96.390625 120.746094 L 95.023438 120.492188 L 97.125 111.632812 L 98.304688 111.632812 L 100.925781 118.746094 L 103.546875 111.632812 L 104.726562 111.632812 L 106.828125 120.492188 L 105.460938 120.746094 L 104.042969 113.933594 L 101.515625 120.597656 L 100.335938 120.597656 L 97.808594 113.933594 "/>
<path style="stroke:none;fill-rule:nonzero;fill:#100F0D;" d="M 115.570312 119.492188 L 115.570312 120.597656 L 110.425781 120.597656 L 110.425781 111.632812 L 115.386719 111.632812 L 115.386719 112.738281 L 111.789062 112.738281 L 111.789062 115.339844 L 114.832031 115.339844 L 114.832031 116.441406 L 111.789062 116.441406 L 111.789062 119.492188 L 115.570312 119.492188 "/>
<path style="stroke:none;fill-rule:nonzero;fill:#100F0D;" d="M 120.511719 113.800781 L 120.511719 120.597656 L 119.148438 120.597656 L 119.148438 111.632812 L 120.511719 111.632812 L 125.605469 118.429688 L 125.605469 111.632812 L 126.96875 111.632812 L 126.96875 120.597656 L 125.605469 120.597656 L 120.511719 113.800781 "/>
<path style="stroke:none;fill-rule:nonzero;fill:#100F0D;" d="M 133.238281 120.597656 L 133.238281 112.738281 L 130.472656 112.738281 L 130.472656 111.632812 L 137.371094 111.632812 L 137.371094 112.738281 L 134.605469 112.738281 L 134.605469 120.597656 L 133.238281 120.597656 "/>
<path style="stroke:none;fill-rule:nonzero;fill:#100F0D;" d="M 141.722656 117.535156 L 145.152344 117.535156 L 143.4375 113.53125 Z M 138.996094 120.417969 L 142.957031 111.632812 L 143.917969 111.632812 L 147.882812 120.417969 L 146.519531 120.746094 L 145.613281 118.640625 L 141.261719 118.640625 L 140.359375 120.746094 L 138.996094 120.417969 "/>
<path style="stroke:none;fill-rule:nonzero;fill:#100F0D;" d="M 156.292969 119.492188 L 156.292969 120.597656 L 151.242188 120.597656 L 151.242188 111.632812 L 152.605469 111.632812 L 152.605469 119.492188 L 156.292969 119.492188 "/>
<g clip-path="url(#clip3)" clip-rule="nonzero">
<path style="stroke:none;fill-rule:nonzero;fill:#100F0D;" d="M 22.578125 138.160156 L 22.578125 129.441406 L 23.90625 129.441406 L 23.90625 133.523438 L 28.15625 129.371094 L 29.089844 130.007812 L 25.320312 133.65625 L 29.683594 137.535156 L 28.660156 138.304688 L 23.90625 133.890625 L 23.90625 138.160156 L 22.578125 138.160156 "/>
</g>
<g clip-path="url(#clip4)" clip-rule="nonzero">
<path style="stroke:none;fill-rule:nonzero;fill:#100F0D;" d="M 33 138.160156 L 31.636719 138.160156 L 31.636719 129.441406 L 33 129.441406 L 33 138.160156 "/>
</g>
<g clip-path="url(#clip5)" clip-rule="nonzero">
<path style="stroke:none;fill-rule:nonzero;fill:#100F0D;" d="M 37.683594 138.160156 L 37.683594 130.519531 L 34.992188 130.519531 L 34.992188 129.441406 L 41.699219 129.441406 L 41.699219 130.519531 L 39.007812 130.519531 L 39.007812 138.160156 L 37.683594 138.160156 "/>
</g>
<g clip-path="url(#clip6)" clip-rule="nonzero">
<path style="stroke:none;fill-rule:nonzero;fill:#100F0D;" d="M 50.148438 130.460938 L 49.214844 131.214844 C 48.621094 130.621094 47.960938 130.34375 47.007812 130.34375 C 45 130.34375 44.320312 132.203125 44.320312 133.800781 C 44.320312 135.398438 45.125 137.261719 47.007812 137.261719 C 47.960938 137.261719 48.621094 136.984375 49.214844 136.386719 L 50.148438 137.144531 C 49.269531 137.957031 48.355469 138.304688 47.007812 138.304688 C 44.335938 138.304688 42.957031 135.96875 42.957031 133.800781 C 42.957031 131.636719 44.300781 129.296875 47.007812 129.296875 C 48.355469 129.296875 49.269531 129.648438 50.148438 130.460938 "/>
</g>
<g clip-path="url(#clip7)" clip-rule="nonzero">
<path style="stroke:none;fill-rule:nonzero;fill:#100F0D;" d="M 53.359375 138.160156 L 52.03125 138.160156 L 52.03125 129.441406 L 53.359375 129.441406 L 53.359375 133.191406 L 57.59375 133.191406 L 57.59375 129.441406 L 58.917969 129.441406 L 58.917969 138.160156 L 57.59375 138.160156 L 57.59375 134.265625 L 53.359375 134.265625 L 53.359375 138.160156 "/>
</g>
<g clip-path="url(#clip8)" clip-rule="nonzero">
<path style="stroke:none;fill-rule:nonzero;fill:#100F0D;" d="M 66.433594 137.082031 L 66.433594 138.160156 L 61.429688 138.160156 L 61.429688 129.441406 L 66.253906 129.441406 L 66.253906 130.519531 L 62.757812 130.519531 L 62.757812 133.046875 L 65.71875 133.046875 L 65.71875 134.121094 L 62.757812 134.121094 L 62.757812 137.082031 L 66.433594 137.082031 "/>
</g>
<g clip-path="url(#clip9)" clip-rule="nonzero">
<path style="stroke:none;fill-rule:nonzero;fill:#100F0D;" d="M 69.664062 131.550781 L 69.664062 138.160156 L 68.335938 138.160156 L 68.335938 129.441406 L 69.664062 129.441406 L 74.613281 136.054688 L 74.613281 129.441406 L 75.941406 129.441406 L 75.941406 138.160156 L 74.613281 138.160156 L 69.664062 131.550781 "/>
</g>
<g clip-path="url(#clip10)" clip-rule="nonzero">
<path style="stroke:none;fill-rule:nonzero;fill:#100F0D;" d="M 83.800781 131.550781 C 83.800781 130.285156 85.269531 129.296875 86.851562 129.296875 C 87.835938 129.296875 88.644531 129.585938 89.273438 130.167969 L 88.375 130.96875 C 88.015625 130.605469 87.386719 130.316406 86.761719 130.316406 C 85.917969 130.316406 85.148438 130.824219 85.148438 131.550781 C 85.148438 132.203125 85.773438 132.582031 86.671875 133 L 87.296875 133.292969 C 88.375 133.800781 89.542969 134.457031 89.542969 135.761719 C 89.542969 137.144531 88.195312 138.304688 86.402344 138.304688 C 85.148438 138.304688 84.160156 137.796875 83.585938 137.144531 L 84.625 136.273438 C 85.074219 136.925781 85.828125 137.261719 86.582031 137.261719 C 87.476562 137.261719 88.195312 136.636719 88.195312 135.835938 C 88.195312 135.136719 87.65625 134.773438 86.671875 134.308594 L 86.042969 134.019531 C 84.875 133.480469 83.800781 132.855469 83.800781 131.550781 "/>
</g>
<g clip-path="url(#clip11)" clip-rule="nonzero">
<path style="stroke:none;fill-rule:nonzero;fill:#100F0D;" d="M 95.425781 137.261719 C 97.414062 137.261719 98.203125 135.253906 98.203125 133.800781 C 98.203125 132.347656 97.414062 130.34375 95.425781 130.34375 C 93.433594 130.34375 92.644531 132.347656 92.644531 133.800781 C 92.644531 135.253906 93.433594 137.261719 95.425781 137.261719 Z M 99.566406 133.800781 C 99.566406 135.996094 98.132812 138.304688 95.425781 138.304688 C 92.714844 138.304688 91.28125 135.996094 91.28125 133.800781 C 91.28125 131.609375 92.714844 129.296875 95.425781 129.296875 C 98.132812 129.296875 99.566406 131.609375 99.566406 133.800781 "/>
</g>
<g clip-path="url(#clip12)" clip-rule="nonzero">
<path style="stroke:none;fill-rule:nonzero;fill:#100F0D;" d="M 106.582031 137.082031 L 106.582031 138.160156 L 101.667969 138.160156 L 101.667969 129.441406 L 102.996094 129.441406 L 102.996094 137.082031 L 106.582031 137.082031 "/>
</g>
<g clip-path="url(#clip13)" clip-rule="nonzero">
<path style="stroke:none;fill-rule:nonzero;fill:#100F0D;" d="M 115.820312 134.527344 C 115.820312 136.691406 114.367188 138.304688 112.015625 138.304688 C 109.667969 138.304688 108.214844 136.691406 108.214844 134.527344 L 108.214844 129.441406 L 109.542969 129.441406 L 109.542969 134.527344 C 109.542969 136.113281 110.402344 137.230469 112.015625 137.230469 C 113.628906 137.230469 114.492188 136.113281 114.492188 134.527344 L 114.492188 129.441406 L 115.820312 129.441406 L 115.820312 134.527344 "/>
</g>
<g clip-path="url(#clip14)" clip-rule="nonzero">
<path style="stroke:none;fill-rule:nonzero;fill:#100F0D;" d="M 120.140625 138.160156 L 120.140625 130.519531 L 117.453125 130.519531 L 117.453125 129.441406 L 124.160156 129.441406 L 124.160156 130.519531 L 121.46875 130.519531 L 121.46875 138.160156 L 120.140625 138.160156 "/>
</g>
<g clip-path="url(#clip15)" clip-rule="nonzero">
<path style="stroke:none;fill-rule:nonzero;fill:#100F0D;" d="M 127.515625 138.160156 L 126.152344 138.160156 L 126.152344 129.441406 L 127.515625 129.441406 L 127.515625 138.160156 "/>
</g>
<g clip-path="url(#clip16)" clip-rule="nonzero">
<path style="stroke:none;fill-rule:nonzero;fill:#100F0D;" d="M 134.027344 137.261719 C 136.015625 137.261719 136.804688 135.253906 136.804688 133.800781 C 136.804688 132.347656 136.015625 130.34375 134.027344 130.34375 C 132.035156 130.34375 131.246094 132.347656 131.246094 133.800781 C 131.246094 135.253906 132.035156 137.261719 134.027344 137.261719 Z M 138.167969 133.800781 C 138.167969 135.996094 136.734375 138.304688 134.027344 138.304688 C 131.316406 138.304688 129.882812 135.996094 129.882812 133.800781 C 129.882812 131.609375 131.316406 129.296875 134.027344 129.296875 C 136.734375 129.296875 138.167969 131.609375 138.167969 133.800781 "/>
</g>
<g clip-path="url(#clip17)" clip-rule="nonzero">
<path style="stroke:none;fill-rule:nonzero;fill:#100F0D;" d="M 141.597656 131.550781 L 141.597656 138.160156 L 140.269531 138.160156 L 140.269531 129.441406 L 141.597656 129.441406 L 146.546875 136.054688 L 146.546875 129.441406 L 147.875 129.441406 L 147.875 138.160156 L 146.546875 138.160156 L 141.597656 131.550781 "/>
</g>
<g clip-path="url(#clip18)" clip-rule="nonzero">
<path style="stroke:none;fill-rule:nonzero;fill:#100F0D;" d="M 150.132812 131.550781 C 150.132812 130.285156 151.605469 129.296875 153.183594 129.296875 C 154.167969 129.296875 154.976562 129.585938 155.605469 130.167969 L 154.707031 130.96875 C 154.347656 130.605469 153.722656 130.316406 153.09375 130.316406 C 152.25 130.316406 151.480469 130.824219 151.480469 131.550781 C 151.480469 132.203125 152.105469 132.582031 153.003906 133 L 153.628906 133.292969 C 154.707031 133.800781 155.875 134.457031 155.875 135.761719 C 155.875 137.144531 154.527344 138.304688 152.734375 138.304688 C 151.480469 138.304688 150.492188 137.796875 149.917969 137.144531 L 150.960938 136.273438 C 151.40625 136.925781 152.160156 137.261719 152.914062 137.261719 C 153.8125 137.261719 154.527344 136.636719 154.527344 135.835938 C 154.527344 135.136719 153.988281 134.773438 153.003906 134.308594 L 152.375 134.019531 C 151.210938 133.480469 150.132812 132.855469 150.132812 131.550781 "/>
</g>
<path style="stroke:none;fill-rule:nonzero;fill:#100F0D;" d="M 118.925781 24.386719 C 112.164062 28.734375 105.347656 32.179688 98.652344 32.644531 C 119.355469 37.160156 145.289062 28.765625 154.214844 42.644531 C 148.230469 28.476562 134.152344 25.414062 118.925781 24.386719 "/>
<path style="stroke:none;fill-rule:nonzero;fill:#100F0D;" d="M 78.019531 19.03125 C 101.417969 53.128906 129.839844 5.171875 155.855469 2.050781 C 132.785156 -1.617188 108.824219 31.996094 78.019531 19.03125 "/>
</g>
</svg>
